<svg width="326" height="35" viewBox="0 0 326 35" fill="none" xmlns="http://www.w3.org/2000/svg">
<path d="M71.6748 18.0436C71.3953 27.2788 63.9736 34.7105 54.7509 34.9903C44.7052 35.3013 36.4295 26.9989 36.74 16.9552C37.0195 7.72001 44.4412 0.288313 53.664 0.00846008C63.6942 -0.30249 71.9853 7.99988 71.6748 18.0436ZM54.2074 5.46563C47.562 5.46563 42.1743 10.8606 42.1743 17.5149C42.1743 24.0604 47.6552 29.5487 54.1919 29.5487C60.8373 29.5487 66.225 24.1537 66.225 17.4994C66.225 10.9539 60.7441 5.46563 54.2074 5.46563Z" fill="black"/>
<path d="M76.4415 32.9693V2.04538C76.4415 1.39238 76.9694 0.86377 77.6215 0.86377H80.5094C81.1615 0.86377 81.6894 1.39239 81.6894 2.04538V28.3206C81.6894 28.6316 81.9379 28.8803 82.2484 28.8803H99.4518C100.104 28.8803 100.632 29.409 100.632 30.062V32.9693C100.632 33.6223 100.104 34.151 99.4518 34.151H77.6215C76.9694 34.151 76.4415 33.6223 76.4415 32.9693Z" fill="black"/>
<path d="M138.299 4.93721V2.04538C138.299 1.39238 138.827 0.86377 139.479 0.86377H162.785C163.437 0.86377 163.965 1.39239 163.965 2.04538V4.93721C163.965 5.5902 163.437 6.11881 162.785 6.11881H139.479C138.827 6.13436 138.299 5.60575 138.299 4.93721ZM139.479 14.8721H162.785C163.437 14.8721 163.965 15.4007 163.965 16.0537V18.9455C163.965 19.5985 163.437 20.1271 162.785 20.1271H139.479C138.827 20.1271 138.299 19.5985 138.299 18.9455V16.0537C138.299 15.4007 138.827 14.8721 139.479 14.8721ZM162.785 34.1509H139.479C138.827 34.1509 138.299 33.6223 138.299 32.9693V30.0775C138.299 29.4245 138.827 28.8959 139.479 28.8959H162.785C163.437 28.8959 163.965 29.4245 163.965 30.0775V32.9693C163.965 33.6223 163.437 34.1509 162.785 34.1509Z" fill="black"/>
<path d="M176.836 0.86377C177.053 0.86377 177.24 0.988148 177.333 1.17472L183.326 13.364L193.263 33.5912C193.387 33.8556 193.201 34.1665 192.906 34.1665H188.264C187.906 34.1665 187.565 33.9644 187.41 33.6379L175.019 8.41985C174.755 7.89123 173.964 8.0778 173.964 8.6686V32.9693C173.964 33.6223 173.436 34.151 172.784 34.151H169.896C169.244 34.151 168.716 33.6223 168.716 32.9693V2.04538C168.716 1.39238 169.244 0.86377 169.896 0.86377H176.836Z" fill="black"/>
<path d="M190.857 2.04538V16.3646C190.857 16.6289 190.919 16.8932 191.028 17.1264L195.375 25.973C195.561 26.3461 196.12 26.2217 196.12 25.802V2.04538C196.12 1.39238 195.592 0.86377 194.94 0.86377H192.052C191.4 0.86377 190.857 1.39239 190.857 2.04538Z" fill="black"/>
<path d="M215.886 34.1505H212.998C212.346 34.1505 211.818 33.6219 211.818 32.9689V6.69365C211.818 6.3827 211.569 6.13395 211.259 6.13395H202.067C201.415 6.13395 200.887 5.60533 200.887 4.95234V2.06051C200.887 1.40752 201.415 0.878906 202.067 0.878906H226.832C227.484 0.878906 228.012 1.40753 228.012 2.06051V4.95234C228.012 5.60534 227.484 6.13395 226.832 6.13395H217.64C217.33 6.13395 217.081 6.3827 217.081 6.69365V32.9689C217.066 33.6219 216.538 34.1505 215.886 34.1505Z" fill="black"/>
<path d="M232.747 4.93721V2.04538C232.747 1.39238 233.275 0.86377 233.927 0.86377H257.233C257.885 0.86377 258.413 1.39239 258.413 2.04538V4.93721C258.413 5.5902 257.885 6.11881 257.233 6.11881H233.927C233.275 6.13436 232.747 5.60575 232.747 4.93721ZM233.927 14.8721H257.233C257.885 14.8721 258.413 15.4007 258.413 16.0537V18.9455C258.413 19.5985 257.885 20.1271 257.233 20.1271H233.927C233.275 20.1271 232.747 19.5985 232.747 18.9455V16.0537C232.747 15.4007 233.275 14.8721 233.927 14.8721ZM257.233 34.1509H233.927C233.275 34.1509 232.747 33.6223 232.747 32.9693V30.0775C232.747 29.4245 233.275 28.8959 233.927 28.8959H257.233C257.885 28.8959 258.413 29.4245 258.413 30.0775V32.9693C258.413 33.6223 257.885 34.1509 257.233 34.1509Z" fill="black"/>
<path d="M280.88 0.0241783C285.817 0.101916 290.258 2.21637 293.394 5.59018C293.829 6.0566 293.829 6.78734 293.363 7.23821L291.22 9.38376C290.739 9.86573 289.963 9.83464 289.497 9.33712C287.277 6.91172 284.094 5.40361 280.554 5.41915C273.939 5.45025 268.49 11.0318 268.567 17.655C268.66 24.2472 274.017 29.5644 280.616 29.5644C284.14 29.5644 287.292 28.0563 289.497 25.6464C289.947 25.1489 290.739 25.1334 291.205 25.6153L293.348 27.7609C293.798 28.2118 293.813 28.9425 293.379 29.4089C290.196 32.8294 285.646 34.9749 280.6 34.9749C271.051 34.9749 263.288 27.2945 263.133 17.7638C262.993 7.9534 271.051 -0.131297 280.88 0.0241783Z" fill="black"/>
<path d="M320.193 20.1427H304.697C304.387 20.1427 304.138 20.3914 304.138 20.7024V32.9693C304.138 33.6223 303.61 34.151 302.958 34.151H300.07C299.418 34.151 298.89 33.6223 298.89 32.9693V2.04538C298.89 1.39238 299.418 0.86377 300.07 0.86377H302.958C303.61 0.86377 304.138 1.39239 304.138 2.04538V14.3124C304.138 14.6233 304.387 14.8721 304.697 14.8721H320.193C320.503 14.8721 320.752 14.6233 320.752 14.3124V2.04538C320.752 1.39238 321.28 0.86377 321.932 0.86377H324.82C325.472 0.86377 326 1.39239 326 2.04538V32.9693C326 33.6223 325.472 34.151 324.82 34.151H321.932C321.28 34.151 320.752 33.6223 320.752 32.9693V20.7024C320.752 20.3914 320.503 20.1427 320.193 20.1427Z" fill="black"/>
<path d="M118.937 34.1509C119.419 34.1509 119.854 33.8555 120.04 33.4201L132.849 2.49618C133.175 1.7188 132.601 0.848145 131.747 0.848145H128.611C128.129 0.848145 127.694 1.14355 127.508 1.57888C123.937 10.2077 120.366 18.8055 116.795 27.4033L116.826 27.3255L114.342 21.3242C114.202 20.9977 113.752 20.9977 113.612 21.3242L111.252 27.0301C111.174 27.2167 111.174 27.4344 111.252 27.6209L113.705 33.4046C113.891 33.8399 114.326 34.1353 114.792 34.1353H118.937V34.1509Z" fill="black"/>
<path d="M112.184 30.4971L112.168 30.5445C112.168 30.5287 112.184 30.5129 112.184 30.4971Z" fill="black"/>
<path d="M105.103 0.86377H101.967C101.128 0.86377 100.554 1.71888 100.865 2.5118L108.954 22.1172C109.094 22.4437 109.559 22.4437 109.684 22.1016L111.997 16.0848C112.044 15.9448 112.044 15.8049 111.997 15.6805C110.056 10.9852 108.115 6.27429 106.19 1.59449C106.019 1.14361 105.585 0.86377 105.103 0.86377Z" fill="black"/>
<path d="M32.0975 5.66769H9.56843C6.91339 5.66769 4.70862 7.84434 4.75519 10.4874C4.80178 13.0683 6.91339 15.1361 9.4908 15.1361H15.422H23.8063C29.1319 15.1361 33.4483 19.5516 33.293 24.9155C33.1533 30.0773 28.8524 34.1507 23.6976 34.1507H1.18408C0.531967 34.1507 0.00406286 33.6221 0.00406286 32.9691V30.5748C0.00406286 29.9218 0.531967 29.3932 1.18408 29.3932H23.7287C26.3216 29.3932 28.4953 27.3254 28.5419 24.7289C28.573 22.0859 26.4458 19.9247 23.8063 19.9247H15.5772H9.59948C4.44466 19.9247 0.143801 15.8513 0.00406168 10.6895C-0.151204 5.32565 4.16518 0.910156 9.4908 0.910156H32.0975C32.7496 0.910156 33.2775 1.43878 33.2775 2.09176V4.48608C33.2775 5.13907 32.7496 5.66769 32.0975 5.66769Z" fill="black"/>
</svg>
